<?xml version="1.0" standalone="no"?>
<!DOCTYPE svg PUBLIC "-//W3C//DTD SVG 20010904//EN"
 "http://www.w3.org/TR/2001/REC-SVG-20010904/DTD/svg10.dtd">
<svg version="1.0" xmlns="http://www.w3.org/2000/svg"
 width="1559.000000pt" height="1559.000000pt" viewBox="0 0 1559.000000 1559.000000"
 preserveAspectRatio="xMidYMid meet">
<metadata>
Created by potrace 1.11, written by Peter Selinger 2001-2013
</metadata>
<g transform="translate(0.000000,1559.000000) scale(0.100000,-0.100000)"
fill="#000000" stroke="none">
<path d="M7219 15476 c-2 -2 -62 -7 -134 -11 -71 -3 -146 -8 -165 -10 -19 -2
-72 -7 -117 -10 -45 -3 -92 -8 -104 -10 -12 -2 -47 -7 -78 -10 -31 -3 -67 -8
-81 -10 -14 -2 -44 -7 -67 -10 -23 -3 -55 -8 -70 -10 -15 -2 -46 -7 -68 -10
-22 -3 -51 -7 -65 -10 -14 -3 -38 -8 -55 -10 -666 -112 -1419 -361 -2047 -675
-166 -83 -290 -150 -383 -205 -38 -22 -77 -44 -85 -48 -8 -4 -27 -15 -42 -25
-15 -9 -67 -41 -115 -71 -148 -91 -483 -322 -578 -398 -5 -4 -41 -33 -80 -62
-60 -47 -277 -225 -311 -256 -6 -5 -51 -46 -100 -89 -159 -143 -489 -478 -634
-646 -72 -83 -203 -242 -234 -285 -17 -22 -33 -42 -36 -45 -4 -3 -42 -52 -84
-110 -43 -58 -83 -112 -89 -120 -95 -121 -354 -536 -494 -790 -231 -418 -475
-1013 -602 -1465 -17 -60 -35 -123 -40 -140 -31 -98 -131 -546 -146 -655 -3
-25 -8 -52 -10 -60 -2 -8 -6 -28 -9 -45 -2 -16 -7 -48 -11 -70 -3 -22 -8 -55
-10 -73 -2 -18 -9 -67 -14 -110 -15 -112 -20 -159 -26 -237 -3 -38 -8 -83 -10
-100 -26 -198 -26 -1016 0 -1243 6 -49 15 -146 20 -202 3 -45 13 -121 21 -171
2 -15 6 -44 9 -65 10 -76 24 -168 31 -204 2 -14 7 -38 10 -55 22 -125 69 -350
94 -450 17 -66 32 -128 35 -137 47 -197 159 -541 261 -805 50 -131 85 -212
175 -413 43 -97 217 -439 258 -508 17 -29 31 -55 31 -57 0 -9 184 -307 270
-435 127 -191 158 -235 253 -360 119 -157 135 -177 216 -275 167 -201 278
-323 486 -530 175 -175 307 -299 395 -371 19 -16 37 -31 40 -35 13 -15 254
-209 339 -273 53 -39 101 -75 108 -81 7 -5 19 -16 27 -22 35 -29 421 -284 521
-345 379 -227 743 -409 1121 -561 60 -25 121 -54 135 -67 28 -25 97 -52 364
-141 163 -54 462 -143 525 -155 14 -3 50 -11 80 -19 30 -8 111 -26 180 -41 69
-14 132 -28 140 -29 127 -30 595 -121 670 -131 19 -2 42 -6 50 -9 8 -2 74 -13
145 -25 72 -11 139 -22 150 -24 11 -2 47 -7 80 -11 32 -3 62 -8 65 -10 3 -1
32 -6 65 -9 33 -4 67 -9 75 -11 8 -2 35 -6 60 -9 25 -3 72 -8 105 -12 33 -3
67 -8 75 -9 9 -2 43 -6 75 -10 33 -4 71 -8 85 -10 14 -2 57 -7 95 -11 39 -4
84 -8 100 -10 17 -1 63 -6 102 -9 40 -3 81 -8 91 -10 10 -2 58 -6 108 -10 49
-4 105 -9 124 -10 19 -2 71 -6 115 -10 44 -3 103 -8 130 -10 28 -3 95 -7 150
-10 55 -3 136 -7 180 -10 44 -3 125 -7 180 -10 55 -2 181 -7 280 -12 99 -4
448 -8 775 -8 593 0 904 7 1310 29 140 8 188 11 490 31 49 3 218 16 260 20 19
2 73 6 120 10 47 3 96 8 110 10 14 2 63 7 110 10 47 4 96 8 110 10 14 2 59 6
100 10 41 3 86 8 100 10 14 2 54 7 90 10 80 8 123 13 175 20 22 3 56 8 75 10
129 13 158 16 180 20 14 3 41 7 60 9 188 24 246 32 340 46 41 6 91 12 110 14
43 5 180 25 211 31 33 7 100 17 129 20 21 2 145 22 253 40 15 3 42 7 60 10
432 74 707 225 827 456 22 43 40 80 39 81 0 2 4 22 10 45 27 98 17 242 -25
376 -53 168 -139 308 -325 532 -296 356 -418 550 -539 856 -57 142 -110 377
-135 594 -4 32 -9 67 -10 77 -2 11 -7 62 -11 116 -3 53 -8 113 -10 132 -4 51
-4 514 1 585 2 33 7 102 10 153 4 50 8 102 10 115 2 12 7 54 10 92 15 151 36
300 70 478 39 212 65 325 102 442 19 61 39 124 43 140 5 17 25 89 45 160 20
72 41 146 45 165 5 19 15 63 24 97 9 34 18 76 21 93 3 18 14 69 24 113 10 45
22 98 25 117 3 19 9 46 12 60 3 14 7 37 9 52 2 15 9 53 14 85 6 32 13 76 16
98 2 22 6 49 9 60 2 11 7 45 10 75 4 30 8 66 11 80 4 26 10 89 20 195 3 33 7
78 10 100 13 127 20 328 20 625 0 365 -11 600 -40 837 -21 173 -33 260 -45
333 -5 30 -12 73 -15 95 -7 49 -19 111 -46 240 -11 55 -23 111 -25 125 -3 14
-16 70 -30 125 -13 55 -26 109 -29 120 -2 11 -20 79 -40 150 -20 72 -38 137
-40 145 -24 99 -204 602 -260 725 -8 17 -25 57 -39 90 -99 242 -256 549 -456
890 -59 102 -295 462 -310 475 -4 3 -22 27 -40 55 -19 27 -40 56 -46 65 -7 8
-34 44 -61 80 -26 36 -50 67 -53 70 -3 3 -21 25 -40 50 -19 25 -42 54 -52 65
-39 48 -184 221 -193 231 -5 6 -44 49 -85 95 -80 89 -402 413 -485 489 -28 25
-86 77 -130 115 -44 39 -82 72 -85 75 -5 6 -216 178 -235 192 -5 4 -35 27 -65
51 -65 52 -342 249 -408 292 -9 6 -21 14 -26 18 -120 89 -526 323 -769 443
-94 47 -183 91 -197 98 -53 29 -342 151 -500 211 -352 135 -780 262 -1090 324
-30 6 -64 13 -75 16 -60 13 -226 44 -260 49 -23 4 -50 8 -62 10 -39 8 -197 30
-288 41 -27 3 -63 8 -80 10 -35 5 -109 12 -215 20 -41 3 -100 8 -130 11 -67 6
-805 15 -811 10z m751 -4552 c148 -14 260 -37 401 -84 597 -196 1052 -680
1218 -1295 23 -86 26 -97 37 -172 3 -26 9 -57 11 -68 3 -11 7 -101 9 -200 6
-320 -49 -568 -186 -850 -180 -368 -490 -682 -834 -844 -70 -33 -261 -108
-328 -130 l-38 -13 0 -238 c0 -265 -6 -312 -56 -416 -52 -109 -178 -222 -267
-238 -14 -2 -31 -7 -37 -11 -20 -12 -146 -12 -208 1 -133 28 -249 119 -312
247 -53 108 -55 140 -54 679 1 536 0 533 59 648 15 30 55 82 89 116 97 96 180
131 336 139 52 3 104 7 116 10 12 3 38 7 60 11 21 3 69 17 107 31 337 121 566
441 570 798 2 136 -8 203 -49 316 -47 129 -105 220 -204 318 -80 80 -89 87
-165 133 -98 58 -156 81 -279 107 -115 25 -277 22 -391 -8 -170 -45 -339 -154
-454 -293 -56 -67 -146 -227 -155 -273 -2 -11 -11 -47 -19 -80 -9 -33 -19
-100 -22 -150 -13 -196 -49 -288 -151 -389 -122 -121 -299 -173 -464 -135
-171 39 -328 195 -369 364 -23 98 -15 298 21 470 22 107 75 293 88 310 4 5 11
21 15 35 11 36 114 242 131 261 8 8 14 19 14 22 0 4 23 40 51 79 221 313 512
541 865 677 60 24 116 44 124 46 8 2 43 11 76 19 92 24 219 45 314 52 47 4 86
8 88 9 4 4 163 -3 242 -11z m-15 -5015 c169 -45 306 -151 390 -298 63 -113 85
-207 81 -346 -6 -165 -66 -303 -184 -419 -117 -117 -247 -174 -412 -183 -387
-21 -702 327 -648 717 50 370 422 625 773 529z"/>
</g>
</svg>
